 <svg version="1.0" xmlns="http://www.w3.org/2000/svg" width="300.000000pt" height="300.000000pt" viewBox="0 0 300.000000 300.000000" preserveAspectRatio="xMidYMid meet">  <g transform="translate(0.000000,300.000000) scale(0.100000,-0.100000)" fill="#ffe14d" stroke="none"> <path d="M2062 2654 c-35 -13 -78 -26 -95 -29 -16 -3 -35 -9 -41 -13 -6 -3 -16 -7 -21 -8 -6 -1 -37 -9 -70 -19 -33 -10 -67 -19 -75 -22 -10 -3 -3 -14 25 -38 22 -19 46 -34 53 -35 48 -1 3 -69 -134 -201 -125 -121 -148 -140 -239 -208 -22 -17 -51 -38 -65 -49 -14 -10 -59 -38 -100 -63 -68 -41 -108 -61 -225 -115 -59 -27 -17 -29 70 -4 39 11 77 22 86 24 33 8 226 91 279 119 65 35 207 128 235 154 11 10 52 46 90 80 39 34 86 82 105 107 34 44 59 58 61 34 0 -13 88 -82 95 -76 2 2 6 33 8 69 3 35 6 66 7 69 0 3 2 23 4 45 4 70 15 169 21 188 7 21 5 21 -74 -9z m35 -42 c3 -20 -17 -244 -23 -254 -5 -8 -64 14 -64 24 0 4 -11 8 -25 8 -19 0 -49 -23 -113 -88 -48 -48 -105 -101 -127 -117 -22 -17 -46 -36 -54 -43 -28 -27 -163 -112 -177 -112 -8 0 -14 -4 -14 -10 0 -5 -9 -10 -19 -10 -11 0 -21 -5 -23 -11 -2 -6 -16 -12 -31 -12 -15 -1 -27 -5 -27 -9 0 -5 -54 -28 -68 -28 -3 0 12 11 32 25 20 14 41 25 47 25 6 0 7 5 4 10 -3 6 1 10 9 10 9 0 16 4 16 9 0 5 8 12 18 15 10 4 36 22 57 41 21 18 44 31 49 28 6 -3 8 -3 4 1 -4 4 17 28 45 53 123 108 244 236 258 271 7 19 3 32 -21 65 -16 22 -27 43 -25 48 3 4 27 12 54 19 26 6 84 24 127 39 43 15 81 25 83 24 3 -2 6 -11 8 -21z"></path> <path d="M1379 2489 c-142 -21 -263 -81 -359 -179 -113 -115 -173 -272 -173 -455 -1 -113 16 -185 65 -282 86 -171 257 -309 444 -358 89 -23 253 -21 338 4 124 37 229 102 316 199 70 77 113 159 139 262 20 79 28 254 13 264 -5 3 -12 -34 -15 -82 -10 -155 -64 -276 -164 -373 -131 -127 -231 -170 -410 -175 -185 -5 -299 41 -429 170 -125 126 -172 234 -172 401 0 152 27 232 123 364 34 46 116 113 185 150 44 23 80 40 80 36 0 -3 12 1 28 9 26 13 131 30 180 29 26 -1 30 14 5 20 -29 7 -134 5 -194 -4z m-199 -118 c-63 -48 -117 -108 -137 -151 -4 -8 -12 -20 -17 -27 -30 -34 -34 -41 -29 -47 3 -3 -1 -16 -9 -28 -15 -24 -36 -107 -42 -173 -3 -22 -8 -48 -11 -57 -4 -11 -3 -18 4 -18 6 0 10 -20 10 -49 -2 -84 63 -240 130 -313 9 -9 33 -35 54 -57 21 -23 42 -41 46 -41 4 0 19 -9 32 -21 27 -24 109 -67 136 -73 10 -1 25 -6 33 -9 41 -15 95 -21 203 -22 64 0 117 2 117 5 0 3 21 12 48 19 60 17 182 80 189 98 3 7 9 10 15 7 5 -3 -4 -17 -19 -30 -46 -41 -115 -84 -124 -78 -5 3 -9 1 -9 -3 0 -15 -45 -36 -125 -58 -116 -31 -234 -26 -360 16 -52 17 -95 36 -95 41 0 5 -4 7 -9 4 -5 -3 -14 1 -21 9 -7 8 -19 15 -26 15 -8 0 -14 4 -14 9 0 5 -8 12 -18 16 -25 7 -130 114 -138 140 -4 11 -15 27 -25 36 -11 9 -19 24 -19 33 0 9 -3 16 -7 16 -12 0 -45 88 -38 100 3 5 1 10 -6 10 -7 0 -9 3 -6 6 3 4 2 14 -3 24 -5 9 -12 35 -15 56 -3 22 -7 49 -9 62 -2 12 1 44 6 70 5 26 10 58 12 72 2 14 6 32 9 40 3 8 13 38 21 67 18 63 59 136 103 183 18 19 33 38 33 43 0 4 7 7 15 7 8 0 19 9 25 19 10 20 45 37 68 33 6 -2 12 4 12 13 0 9 5 13 10 10 6 -3 10 -1 10 5 0 6 5 8 12 4 8 -5 1 -16 -22 -33z"></path> <path d="M1840 2118 c0 -7 -1 -160 -2 -341 -2 -180 0 -327 3 -327 15 0 100 78 135 123 l37 48 1 254 1 255 -87 0 c-64 0 -88 -3 -88 -12z m137 -26 c9 -6 12 -66 11 -227 -1 -212 -1 -221 -24 -256 -29 -46 -66 -87 -83 -91 -11 -2 -14 53 -16 282 -2 157 -1 288 2 292 6 10 94 10 110 0z"></path> <path d="M1554 1941 c-2 -2 -4 -130 -4 -284 l0 -279 68 5 c37 3 78 9 92 15 l25 10 0 268 0 269 -88 0 c-49 0 -91 -2 -93 -4z m151 -60 c3 -20 4 -129 3 -243 l-3 -207 -25 -7 c-62 -16 -90 -16 -90 0 0 9 -5 16 -11 16 -5 0 -7 5 -4 11 4 6 6 74 6 152 -2 182 0 273 7 310 1 4 26 7 56 6 55 -2 55 -3 61 -38z"></path> <path d="M1280 1790 c-1 -3 -1 -79 -1 -170 l0 -165 43 -22 c24 -13 57 -27 73 -32 17 -5 37 -12 45 -15 13 -5 15 20 13 201 l-3 208 -85 0 c-47 1 -85 -2 -85 -5z m136 -32 c9 -9 13 -304 4 -318 -7 -12 -67 4 -95 26 -18 13 -20 27 -21 132 -1 138 2 160 24 164 28 6 80 3 88 -4z"></path> <path d="M560 1003 c-24 -17 -27 -65 -4 -87 8 -9 28 -16 44 -16 16 0 36 7 44 16 19 19 21 68 4 81 -22 18 -67 21 -88 6z m66 -34 c10 -17 -23 -46 -37 -32 -7 7 -9 19 -6 27 7 18 33 21 43 5z"></path> <path d="M90 695 l0 -295 51 0 50 0 -2 121 -1 121 113 -1 c62 -1 117 -3 122 -4 5 -1 11 20 12 46 l3 49 -124 -4 -123 -3 -3 85 c-2 47 0 89 4 95 5 5 8 4 8 -3 0 -9 34 -12 125 -12 l125 0 0 50 0 50 -180 0 -180 0 0 -295z m325 254 c12 -19 -3 -22 -102 -24 -151 -2 -158 -8 -155 -124 3 -97 14 -106 135 -106 126 0 135 -19 10 -22 -142 -3 -145 -7 -145 -165 0 -39 -4 -58 -13 -62 -22 -8 -26 8 -24 101 1 49 1 153 0 233 -1 80 1 153 4 163 6 15 23 17 145 17 88 0 141 -4 145 -11z"></path> <path d="M1406 978 c-4 -16 -104 -296 -115 -323 -5 -11 -29 -73 -54 -137 l-45 -118 57 0 57 0 19 69 19 69 121 -1 122 0 19 -66 19 -66 58 -3 c31 -2 57 0 57 3 0 3 -9 24 -19 48 -21 47 -75 192 -147 400 l-49 137 -58 0 c-38 0 -59 -4 -61 -12z m109 -60 c5 -20 13 -40 18 -44 4 -4 7 -14 7 -21 0 -8 9 -33 20 -55 11 -23 20 -48 20 -55 0 -7 5 -13 10 -13 6 0 10 -8 10 -17 0 -10 20 -76 45 -148 24 -71 42 -132 39 -134 -11 -11 -39 18 -48 50 -6 19 -16 40 -23 47 -7 8 -10 18 -7 24 4 7 2 8 -4 4 -7 -4 -12 -3 -12 2 0 5 -56 7 -125 6 -140 -3 -146 -6 -166 -72 -10 -36 -34 -60 -46 -48 -2 2 4 29 15 60 10 31 22 53 25 50 3 -4 5 3 4 14 0 11 6 37 15 58 16 40 18 46 70 199 17 50 35 92 39 93 5 2 9 12 9 21 0 14 8 18 37 17 34 -1 38 -4 48 -38z"></path> <path d="M1419 832 c-15 -29 -22 -49 -15 -45 6 4 4 -1 -4 -11 -29 -37 -51 -158 -30 -171 6 -3 10 1 10 10 0 10 16 64 36 122 42 125 43 174 3 95z"></path> <path d="M1486 861 c-3 -4 -1 -21 4 -37 16 -50 57 -168 65 -186 6 -16 -1 -18 -79 -18 -70 0 -86 -3 -86 -15 0 -11 12 -15 43 -17 23 0 49 -2 57 -3 8 -1 20 1 25 4 6 3 16 6 24 8 18 2 31 22 31 48 1 26 -63 225 -72 225 -4 0 -9 -4 -12 -9z"></path> <path d="M2430 827 c-40 -21 -73 -72 -39 -62 11 4 19 2 19 -5 0 -6 -4 -8 -10 -5 -5 3 -10 1 -10 -5 0 -7 -6 -10 -13 -7 -20 8 -40 -72 -42 -172 -2 -47 -3 -95 -4 -107 -1 -11 -8 -21 -16 -21 -8 0 -13 2 -11 4 2 3 0 20 -6 39 -6 24 -6 39 1 48 7 8 7 24 2 42 -4 16 -7 47 -6 69 2 22 3 66 4 98 1 44 4 57 16 57 9 0 18 -7 22 -16 5 -13 7 -13 14 -2 5 7 9 23 9 34 0 19 -5 21 -45 20 -25 0 -45 -4 -45 -8 0 -5 0 -102 0 -218 l0 -210 51 0 50 0 -2 145 c-2 128 0 148 16 165 22 24 78 41 114 34 27 -6 27 -5 27 45 0 28 -2 51 -5 52 -38 5 -63 1 -91 -14z m53 -42 c-6 -16 -63 -21 -63 -6 0 11 51 30 62 24 4 -2 5 -10 1 -18z"></path> <path d="M2639 821 c-54 -21 -77 -41 -48 -41 8 0 10 -12 6 -35 -5 -33 5 -47 18 -24 12 18 59 33 115 35 65 2 100 -22 100 -67 0 -36 18 -47 26 -15 7 30 -19 79 -53 97 -12 7 -52 12 -88 12 -36 0 -65 4 -65 9 0 5 4 7 9 3 5 -3 13 -1 16 5 8 13 145 11 145 -2 0 -4 6 -8 13 -8 6 0 22 -11 34 -24 24 -25 26 -44 24 -223 l-2 -112 -25 9 c-21 9 -24 7 -24 -15 0 -23 4 -25 43 -25 l42 0 -2 165 c-2 187 -12 225 -71 257 -18 10 -34 18 -37 18 -3 0 -6 0 -7 1 -2 0 -27 1 -57 2 -36 1 -72 -5 -112 -22z"></path> <path d="M554 618 l1 -218 48 0 47 0 -2 216 -3 216 -46 2 -46 2 1 -218z m64 25 c-2 -172 -6 -203 -24 -203 -11 0 -13 33 -12 173 1 94 3 175 5 179 2 4 10 5 18 2 12 -5 14 -32 13 -151z"></path> <path d="M750 619 l0 -219 50 0 50 0 0 145 c0 144 0 145 28 175 43 48 137 45 156 -5 3 -9 6 -84 6 -166 l0 -149 51 0 51 0 -4 173 c-3 164 -4 175 -27 209 -28 40 -68 58 -132 58 -53 0 -86 -16 -104 -50 -7 -14 -22 -44 -34 -66 -18 -36 -21 -59 -21 -164 0 -108 -2 -121 -17 -118 -9 2 -18 13 -19 25 -2 12 -5 26 -5 30 -1 4 1 16 5 26 5 9 5 29 1 45 -6 23 -7 89 -2 194 1 33 23 44 36 20 8 -15 11 -13 21 12 6 16 8 31 5 34 -3 3 -26 7 -50 8 l-45 1 0 -218z m307 173 c26 -13 36 -27 48 -68 19 -64 19 -88 3 -78 -10 6 -10 4 -3 -7 8 -11 11 -123 6 -189 -2 -17 -29 -11 -35 8 -3 9 -5 67 -5 128 1 88 -3 117 -16 137 -22 35 -57 56 -102 63 -42 7 -55 13 -30 15 29 2 35 4 41 10 10 9 57 -1 93 -19z"></path> <path d="M1784 828 c-10 -16 1 -300 13 -342 21 -70 87 -105 173 -91 40 7 105 60 94 77 -3 5 0 16 7 24 19 23 20 35 22 166 2 111 11 149 34 135 9 -6 8 -320 -1 -344 -3 -7 -12 -10 -20 -7 -12 5 -36 -22 -36 -40 0 -3 23 -6 50 -6 l50 0 0 218 0 219 -52 -1 -53 -1 3 -145 c3 -135 2 -147 -17 -172 -27 -34 -67 -47 -109 -36 -51 14 -62 51 -62 216 l0 139 -46 -1 c-25 -1 -48 -4 -50 -8z m66 -153 c0 -136 16 -186 66 -210 18 -8 40 -15 49 -15 9 0 15 -6 12 -12 -5 -17 -75 -15 -112 3 -17 8 -32 26 -38 44 -12 40 -16 265 -5 288 20 40 28 12 28 -98z"></path> <path d="M2638 646 c-80 -33 -106 -129 -55 -203 31 -46 110 -66 169 -44 13 5 26 8 29 7 10 -2 59 61 59 76 0 7 6 22 14 33 11 17 11 28 -4 73 -10 29 -21 56 -24 60 -12 11 -159 10 -188 -2z m32 -35 c0 -5 -9 -12 -19 -16 -23 -7 -34 -44 -25 -82 7 -30 48 -76 58 -66 3 4 6 1 6 -5 0 -19 -18 -23 -47 -10 -30 14 -54 39 -47 50 2 4 0 9 -5 12 -15 9 5 74 30 101 24 25 49 33 49 16z m160 -50 c0 -53 -31 -89 -85 -97 -76 -11 -120 52 -75 108 17 22 28 25 90 27 l70 2 0 -40z"></path> </g> </svg> 